<svg width="16" height="17" viewBox="0 0 16 17" fill="none" xmlns="http://www.w3.org/2000/svg">
<path d="M14 10.4902H12.3125L10.8125 11.9902H14C14.25 11.9902 14.5 12.2402 14.5 12.4902V14.9902C14.5 15.2715 14.25 15.4902 14 15.4902H2C1.71875 15.4902 1.5 15.2715 1.5 14.9902V12.4902C1.5 12.2402 1.71875 11.9902 2 11.9902H5.15625L3.65625 10.4902H2C0.875 10.4902 0 11.3965 0 12.4902V14.9902C0 16.1152 0.875 16.9902 2 16.9902H14C15.0938 16.9902 16 16.1152 16 14.9902V12.4902C16 11.3965 15.0938 10.4902 14 10.4902ZM13.5 13.7402C13.5 13.334 13.1562 12.9902 12.75 12.9902C12.3125 12.9902 12 13.334 12 13.7402C12 14.1777 12.3125 14.4902 12.75 14.4902C13.1562 14.4902 13.5 14.1777 13.5 13.7402ZM7.46875 12.5215C7.59375 12.6777 7.78125 12.7402 8 12.7402C8.1875 12.7402 8.375 12.6777 8.5 12.5215L12.75 8.27148C13.0625 7.99023 13.0625 7.52148 12.75 7.24023C12.4688 6.92773 12 6.92773 11.7188 7.24023L8.75 10.209V1.74023C8.75 1.33398 8.40625 0.990234 8 0.990234C7.5625 0.990234 7.25 1.33398 7.25 1.74023V10.209L4.25 7.20898C3.9375 6.92773 3.46875 6.92773 3.1875 7.20898C2.875 7.52148 2.875 7.99023 3.1875 8.27148L7.46875 12.5215Z" fill="white"/>
</svg>
