<svg width="16" height="17" viewBox="0 0 16 17" fill="none" xmlns="http://www.w3.org/2000/svg">
<path d="M15.5312 0.990234L10.4375 1.02148C10.1875 1.02148 10 1.20898 10 1.45898V2.49023C10 2.74023 10.1875 2.95898 10.4375 2.95898L12.75 2.86523L12.8125 2.92773L4.09375 11.6465C4.03125 11.709 3.96875 11.8027 3.96875 11.8965C3.96875 12.0215 4.03125 12.1152 4.09375 12.1777L4.8125 12.8965C4.875 12.959 4.96875 13.0215 5.09375 13.0215C5.1875 13.0215 5.28125 12.959 5.34375 12.8965L14.0625 4.17773L14.125 4.24023L14.0312 6.55273C14.0312 6.80273 14.25 7.02148 14.5 7.02148V6.99023H15.5312C15.7812 6.99023 15.9688 6.80273 15.9688 6.55273L16 1.45898C16 1.20898 15.7812 0.990234 15.5312 0.990234ZM13.5 9.99023H13C12.7188 9.99023 12.5 10.2402 12.5 10.4902V15.3027C12.5 15.4277 12.4062 15.4902 12.3125 15.4902H1.6875C1.5625 15.4902 1.5 15.4277 1.5 15.3027V4.67773C1.5 4.58398 1.5625 4.49023 1.6875 4.49023H6.5C6.75 4.49023 7 4.27148 7 3.99023V3.49023C7 3.24023 6.75 2.99023 6.5 2.99023H1.5C0.65625 2.99023 0 3.67773 0 4.49023V15.4902C0 16.334 0.65625 16.9902 1.5 16.9902H12.5C13.3125 16.9902 14 16.334 14 15.4902V10.4902C14 10.2402 13.75 9.99023 13.5 9.99023Z" fill="white"/>
</svg>
