<svg width="20" height="16" viewBox="0 0 20 16" fill="none" xmlns="http://www.w3.org/2000/svg">
<path d="M18.6562 1.33398C17.8125 0.458984 16.7188 0.0214844 15.5938 0.0214844C14.4062 -0.00976562 13.2188 0.427734 12.3438 1.33398L10.5312 3.08398C10.9688 3.33398 11.4062 3.61523 11.7812 3.95898L13.375 2.39648C13.9375 1.80273 14.7188 1.49023 15.5 1.49023C16.25 1.49023 17.0312 1.80273 17.5938 2.39648C18.7812 3.55273 18.7812 5.45898 17.5938 6.61523L14.0625 10.1465C12.9375 11.3027 10.9688 11.3027 9.84375 10.1465C9.25 9.58398 8.9375 8.83398 8.9375 8.05273C8.9375 7.49023 9.09375 6.95898 9.375 6.52148C9.03125 6.17773 8.53125 5.99023 8.03125 5.99023C8 5.99023 7.96875 5.99023 7.96875 5.99023C7.625 6.61523 7.4375 7.30273 7.4375 8.02148C7.4375 9.24023 7.90625 10.3652 8.78125 11.209C9.625 12.0527 10.75 12.5215 11.9375 12.5215C13.1562 12.5215 14.2812 12.084 15.125 11.209L18.6562 7.67773C19.5312 6.80273 19.9688 5.64648 20 4.49023C20 3.33398 19.5312 2.20898 18.6562 1.33398ZM6.59375 13.6152C6.03125 14.1777 5.25 14.4902 4.46875 14.4902C3.71875 14.4902 2.9375 14.1777 2.375 13.6152C1.1875 12.4277 1.1875 10.5215 2.375 9.36523L5.90625 5.83398C7.03125 4.67773 9 4.67773 10.125 5.83398C10.7188 6.39648 11.0312 7.14648 11.0312 7.95898C11.0312 8.49023 10.875 9.02148 10.5938 9.49023C10.9375 9.80273 11.4375 9.99023 11.9375 9.99023C11.9688 9.99023 12 9.99023 12 9.99023C12.3438 9.36523 12.5312 8.67773 12.5312 7.95898C12.5312 6.74023 12.0625 5.61523 11.1875 4.77148C10.3438 3.92773 9.21875 3.45898 8.03125 3.45898C6.8125 3.45898 5.6875 3.92773 4.84375 4.77148L1.3125 8.33398C0.4375 9.20898 0 10.3652 0 11.5215C0 12.6465 0.4375 13.8027 1.3125 14.6777C2.125 15.4902 3.15625 15.959 4.25 15.9902C5.46875 16.0527 6.71875 15.6152 7.65625 14.6777L9.4375 12.9277C9 12.6777 8.5625 12.3965 8.1875 12.0527L6.59375 13.6152Z" fill="white"/>
</svg>
