<svg width="14" height="15" viewBox="0 0 14 15" fill="none" xmlns="http://www.w3.org/2000/svg">
<path d="M11 8.99023C10.0938 8.99023 9.28125 9.39648 8.71875 10.0527L5.90625 8.64648C5.96875 8.42773 6 8.20898 6 7.99023C6 7.80273 5.96875 7.58398 5.90625 7.36523L8.71875 5.95898C9.28125 6.58398 10.0938 6.99023 11 6.99023C12.6562 6.99023 14 5.67773 14 3.99023C14 2.33398 12.6562 0.990234 11 0.990234C9.3125 0.990234 8 2.33398 8 3.99023C8 4.20898 8 4.42773 8.0625 4.64648L5.25 6.05273C4.6875 5.39648 3.875 4.99023 3 4.99023C1.3125 4.99023 0 6.33398 0 7.99023C0 9.67773 1.3125 10.9902 3 10.9902C3.875 10.9902 4.6875 10.6152 5.25 9.95898L8.0625 11.3652C8 11.584 8 11.8027 8 11.9902C8 13.6777 9.3125 14.9902 11 14.9902C12.6562 14.9902 14 13.6777 14 11.9902C14 10.334 12.6562 8.99023 11 8.99023ZM11 2.49023C11.8125 2.49023 12.5 3.17773 12.5 3.99023C12.5 4.83398 11.8125 5.49023 11 5.49023C10.1562 5.49023 9.5 4.83398 9.5 3.99023C9.5 3.17773 10.1562 2.49023 11 2.49023ZM3 9.49023C2.15625 9.49023 1.5 8.83398 1.5 7.99023C1.5 7.17773 2.15625 6.49023 3 6.49023C3.8125 6.49023 4.5 7.17773 4.5 7.99023C4.5 8.83398 3.8125 9.49023 3 9.49023ZM11 13.4902C10.1562 13.4902 9.5 12.834 9.5 11.9902C9.5 11.1777 10.1562 10.4902 11 10.4902C11.8125 10.4902 12.5 11.1777 12.5 11.9902C12.5 12.834 11.8125 13.4902 11 13.4902Z" fill="white"/>
</svg>
